<svg width="40" height="40" viewBox="0 0 40 40" fill="none" xmlns="http://www.w3.org/2000/svg">
<path d="M33.4983 35.3958V39.3334C33.4983 39.7015 33.1999 40 32.8317 40C32.4636 40 32.1652 39.7015 32.1652 39.3334V35.3958C32.1652 32.33 29.6842 29.8489 26.6181 29.849C25.1674 29.849 23.8512 29.1099 23.097 27.8719C22.9056 27.5575 23.0051 27.1473 23.3196 26.9559C23.634 26.7643 24.0441 26.864 24.2356 27.1784C24.7457 28.0159 25.6364 28.5158 26.6181 28.5158C30.4207 28.5157 33.4983 31.5929 33.4983 35.3958ZM21.866 28.714C21.9444 29.0737 21.7164 29.4288 21.3567 29.5072C19.6024 29.8894 17.8182 29.5068 16.3977 28.5372C14.9913 30.0442 13.1334 29.849 13.3821 29.849C10.3163 29.8489 7.83511 32.3297 7.83511 35.3958V39.3334C7.83511 39.7015 7.53665 40 7.16853 40C6.80041 40 6.50195 39.7015 6.50195 39.3334V35.3958C6.50195 31.5933 9.57897 28.5158 13.382 28.5158C14.9203 28.5158 16.1674 27.2764 16.1674 25.7377V25.5621C13.2578 24.1709 11.2156 21.2474 11.0911 17.8429C9.89376 17.555 9.00162 16.4833 9.00162 15.2082V11.7526C8.96521 10.0612 9.21635 5.82481 12.3052 2.84737C16.1193 -0.829316 22.2358 -0.595764 26.7334 1.56937C27.1717 1.78059 27.2383 2.37285 26.8743 2.67956C29.1527 3.23532 31.1175 4.63597 32.3797 6.64054C32.4449 6.74377 32.5642 6.90584 32.533 7.16438C32.5137 7.32528 32.4658 7.46143 32.3418 7.58724C31.5294 8.41114 31.0821 9.50291 31.0821 10.6615V15.2084C31.0821 15.5765 30.7836 15.875 30.4155 15.875C30.0474 15.875 29.7489 15.5765 29.7489 15.2084V10.6615C29.7489 9.32527 30.2054 8.05693 31.0439 7.03807C29.7659 5.21031 27.772 4.0348 25.517 3.79333L24.3454 3.66784C23.6603 3.59452 23.5259 2.65073 24.1626 2.38868L24.6954 2.16929C17.7558 -0.249976 10.3347 2.43809 10.3347 11.7454V15.2082C10.3347 15.7372 10.6393 16.1969 11.0846 16.4277V12.1064C11.0846 9.53357 13.1778 7.44035 15.7507 7.44035H24.2495C26.8224 7.44035 28.9156 9.53341 28.9156 12.1062V17.564C28.9156 23.3611 23.2507 27.7643 17.4863 26.0673C17.4488 26.5429 17.3304 27.0019 17.1375 27.4285C18.2588 28.1985 19.6749 28.5092 21.0728 28.2045C21.4325 28.1262 21.7876 28.3543 21.866 28.714ZM20.0001 25.0957C24.181 25.0957 27.5824 21.6943 27.5824 17.5134V12.1062C27.5824 10.2686 26.0873 8.77351 24.2495 8.77351H15.7507C13.9129 8.77351 12.4178 10.2686 12.4178 12.1064V17.5134C12.4178 21.6943 15.8191 25.0957 20.0001 25.0957ZM26.7492 36.5838H24.7495C24.3814 36.5838 24.0829 36.8822 24.0829 37.2504C24.0829 37.6185 24.3814 37.9169 24.7495 37.9169H26.7492C27.1173 37.9169 27.4158 37.6185 27.4158 37.2504C27.4158 36.8822 27.1173 36.5838 26.7492 36.5838Z" fill="#C4C4CC"/>
</svg>
